<?xml version="1.0" encoding="UTF-8" standalone="no"?>
<svg
   height="100"
   viewBox="0 0 56.301661 26.458332"
   width="212.79367"
   version="1.1"
   id="svg23"
   sodipodi:docname="logo.svg"
   inkscape:version="1.2.1 (9c6d41e410, 2022-07-14)"
   xmlns:inkscape="http://www.inkscape.org/namespaces/inkscape"
   xmlns:sodipodi="http://sodipodi.sourceforge.net/DTD/sodipodi-0.dtd"
   xmlns="http://www.w3.org/2000/svg"
   xmlns:svg="http://www.w3.org/2000/svg">
  <defs
     id="defs27" />
  <sodipodi:namedview
     id="namedview25"
     pagecolor="#ffffff"
     bordercolor="#000000"
     borderopacity="0.25"
     inkscape:showpageshadow="2"
     inkscape:pageopacity="0.0"
     inkscape:pagecheckerboard="0"
     inkscape:deskcolor="#d1d1d1"
     showgrid="false"
     inkscape:zoom="2.1489535"
     inkscape:cx="44.207564"
     inkscape:cy="18.148368"
     inkscape:window-width="1920"
     inkscape:window-height="1057"
     inkscape:window-x="0"
     inkscape:window-y="0"
     inkscape:window-maximized="1"
     inkscape:current-layer="svg23"
     showguides="true">
    <sodipodi:guide
       position="54.223677,19.911938"
       orientation="1,0"
       id="guide10401"
       inkscape:locked="false" />
    <sodipodi:guide
       position="15.077017,20.660729"
       orientation="0,-1"
       id="guide10436"
       inkscape:locked="false" />
    <sodipodi:guide
       position="15.151885,5.5295558"
       orientation="0,-1"
       id="guide10438"
       inkscape:locked="false" />
  </sodipodi:namedview>
  <linearGradient
     id="a"
     gradientUnits="userSpaceOnUse"
     x1="131.01396"
     x2="131.01396"
     y1="56.457134"
     y2="109.04609">
    <stop
       offset="0"
       stop-color="#ff9c59"
       id="stop2" />
    <stop
       offset=".29313242"
       stop-color="#ff9b58"
       id="stop4" />
    <stop
       offset="1"
       stop-color="#fff"
       id="stop6" />
  </linearGradient>
  <rect
     fill="#f60"
     height="25.917009"
     ry="5.9336305"
     width="17.869095"
     x="0.27066213"
     y="0.27066258"
     id="rect9"
     style="fill:#7de8b2;fill-opacity:1;stroke:#8aa2c4;stroke-width:0.541325;stroke-linecap:round;stroke-linejoin:round;stroke-opacity:1" />
  <path
     d="M 1.7450155,5.5284369 H 16.476787 V 21.199947 H 1.7450155 Z"
     fill="url(#a)"
     id="path11"
     style="fill:#7de8b2;fill-opacity:1;stroke:#985cd6;stroke-width:0.541325;stroke-linecap:round;stroke-linejoin:round;stroke-opacity:1" />
  <path
     d="M 9.1370051,8.4051216 V 11.463466"
     stroke-linecap="round"
     id="path15"
     style="fill:none;fill-opacity:1;stroke:#985cd6;stroke-width:1.08265;stroke-opacity:1" />
  <path
     id="circle17"
     style="fill:none;stroke:#985cd6;stroke-width:1.08265;stroke-linejoin:round"
     d="m 10.855726,16.627352 a 1.69591,1.69591 0 0 1 -1.6959102,1.69591 1.69591,1.69591 0 0 1 -1.69591,-1.69591 1.69591,1.69591 0 0 1 1.69591,-1.69591 1.69591,1.69591 0 0 1 1.6959102,1.69591 z" />
  <g
     aria-label="trigger +
triggerd"
     id="text9188"
     style="font-weight:600;font-size:8.46667px;font-family:FreeSans;-inkscape-font-specification:'FreeSans Semi-Bold';text-align:center;text-anchor:middle;fill:#92edbf;stroke-width:5.95312;stroke-opacity:0.75;stop-color:#000000">
    <path
       d="m 22.047201,7.9745384 h -0.474134 q -0.169333,0 -0.287866,-0.1185334 -0.118534,-0.1185334 -0.118534,-0.2878668 0,-0.1693334 0.118534,-0.2878668 0.118533,-0.127 0.287866,-0.127 h 0.474134 V 6.289671 q 0,-0.2116667 0.143933,-0.3471335 0.143934,-0.1439333 0.347134,-0.1439333 0.211666,0 0.347133,0.1439333 0.143934,0.1354668 0.143934,0.3471335 v 0.8636004 h 0.948267 q 0.169333,0 0.287866,0.127 0.118534,0.1185334 0.118534,0.2878668 0,0.1693334 -0.118534,0.2878668 -0.118533,0.1185334 -0.287866,0.1185334 h -0.948267 v 1.9473341 q 0,0.3217335 0.127,0.4741335 0.135466,0.1524 0.364066,0.1524 0.2032,0 0.304801,-0.0762 0.1016,-0.0762 0.245533,-0.0762 0.1524,0 0.262467,0.1016 0.118533,0.09313 0.118533,0.2794 0,0.110067 -0.05927,0.211667 -0.0508,0.09313 -0.169333,0.169333 -0.2032,0.135467 -0.448733,0.1778 -0.245534,0.04233 -0.397934,0.04233 -0.338667,0 -0.592667,-0.118534 -0.245533,-0.127 -0.414867,-0.3302 -0.160866,-0.2032 -0.245533,-0.465667 -0.0762,-0.262466 -0.0762,-0.5503332 z"
       style="fill:#7de8b2"
       id="path17414" />
    <path
       d="m 24.968193,10.878606 q 0,-0.169333 0.118534,-0.2794 0.118533,-0.118533 0.287866,-0.118533 h 0.601134 V 7.9745384 h -0.5842 q -0.169334,0 -0.287867,-0.1185334 -0.118534,-0.1185334 -0.118534,-0.2878668 0,-0.1693334 0.118534,-0.2878668 0.118533,-0.127 0.287867,-0.127 h 0.9652 q 0.118533,0 0.2032,0.0762 0.08467,0.0762 0.118533,0.1862667 l 0.0508,0.2201334 q 0.338666,-0.2370667 0.753533,-0.3979334 0.423334,-0.1693334 0.829734,-0.1693334 0.211667,0 0.347133,0.1100667 0.143934,0.1016 0.1524,0.2794001 l 0.08467,0.9567337 q 0.01693,0.2032001 -0.110067,0.3302001 -0.127,0.1270001 -0.296333,0.1270001 -0.186267,0 -0.296334,-0.1016001 -0.1016,-0.1100667 -0.127,-0.2624667 l -0.08467,-0.5588003 q -0.245534,0.0254 -0.541867,0.1693334 -0.296334,0.1354668 -0.4826,0.2624668 v 2.0997345 h 0.745067 q 0.169333,0 0.287866,0.118533 0.118534,0.118533 0.118534,0.287867 0,0.169333 -0.118534,0.287867 -0.118533,0.118533 -0.287866,0.118533 h -2.328335 q -0.169333,0 -0.287866,-0.118533 -0.118534,-0.127 -0.118534,-0.296334 z"
       style="fill:#7de8b2"
       id="path17416" />
    <path
       d="m 29.387789,10.887073 q 0,-0.169334 0.118533,-0.287867 0.118534,-0.118533 0.287867,-0.118533 h 0.635 V 7.9745384 h -0.618067 q -0.169333,0 -0.287866,-0.1185334 -0.118534,-0.1185334 -0.118534,-0.2878668 0,-0.1693334 0.118534,-0.2878668 0.118533,-0.127 0.287866,-0.127 h 1.193801 q 0.169333,0 0.287867,0.127 0.118533,0.1185334 0.118533,0.2878668 v 2.9125348 h 0.643467 q 0.160867,0 0.2794,0.118533 0.118533,0.118533 0.118533,0.287867 0,0.169333 -0.118533,0.287867 -0.118533,0.118533 -0.2794,0.118533 h -2.260601 q -0.169333,0 -0.287867,-0.118533 -0.118533,-0.118534 -0.118533,-0.287867 z m 1.337734,-4.3434019 q -0.245534,0 -0.423334,-0.1693334 -0.1778,-0.1778001 -0.1778,-0.4318002 0,-0.2455334 0.1778,-0.4148668 0.1778,-0.1778001 0.423334,-0.1778001 0.245533,0 0.423333,0.1778001 0.1778,0.1693334 0.1778,0.4148668 0,0.2540001 -0.1778,0.4318002 -0.1778,0.1693334 -0.423333,0.1693334 z"
       style="fill:#7de8b2"
       id="path17418" />
    <path
       d="m 35.720837,7.6189382 0.0508,-0.2032001 q 0.03387,-0.1354667 0.143933,-0.2201334 0.118533,-0.084667 0.2794,-0.084667 0.237067,0 0.347133,0.1439334 0.110067,0.1354667 0.110067,0.3217335 0,0.1354667 -0.0508,0.3217334 -0.04233,0.1778001 -0.04233,0.4910669 v 2.9464008 q 0,0.897467 -0.508,1.295401 -0.508001,0.4064 -1.346201,0.4064 -0.296333,0 -0.6604,-0.05927 -0.3556,-0.05927 -0.5842,-0.194733 -0.127,-0.06773 -0.1778,-0.160867 -0.0508,-0.09313 -0.0508,-0.194733 0,-0.1524 0.09313,-0.270934 0.09313,-0.118533 0.3048,-0.118533 0.127,0 0.245533,0.03387 0.127,0.04233 0.254001,0.0762 0.127,0.03387 0.2794,0.0508 0.160866,0.0254 0.296333,0.0254 0.397934,0 0.635,-0.169334 0.237067,-0.169333 0.237067,-0.5842 V 11.20034 q -0.160867,0.05927 -0.372533,0.118533 -0.211667,0.05927 -0.482601,0.05927 -0.440266,0 -0.778933,-0.1524 -0.338667,-0.160867 -0.567267,-0.440267 -0.220134,-0.2794 -0.338667,-0.668867 -0.118533,-0.3979336 -0.118533,-0.8720671 0,-0.4402669 0.09313,-0.8382004 0.1016,-0.3979335 0.296334,-0.6942669 0.2032,-0.2963335 0.499533,-0.4656669 0.296334,-0.1778 0.6858,-0.1778 0.313267,0 0.626534,0.1439333 0.321733,0.1354668 0.601134,0.4064002 z M 35.576903,10.404473 V 8.2454718 q -0.211667,-0.1862667 -0.440267,-0.2709334 -0.2286,-0.093133 -0.4064,-0.093133 -0.414867,0 -0.626533,0.3640668 -0.203201,0.3556001 -0.203201,1.0075337 0,0.694267 0.254001,1.0075335 0.254,0.313267 0.745067,0.313267 0.211666,0 0.364066,-0.0508 0.1524,-0.0508 0.313267,-0.118533 z"
       style="fill:#7de8b2"
       id="path17420" />
    <path
       d="m 40.419824,7.6189382 0.0508,-0.2032001 q 0.03387,-0.1354667 0.143934,-0.2201334 0.118533,-0.084667 0.2794,-0.084667 0.237067,0 0.347133,0.1439334 0.110067,0.1354667 0.110067,0.3217335 0,0.1354667 -0.0508,0.3217334 -0.04233,0.1778001 -0.04233,0.4910669 v 2.9464008 q 0,0.897467 -0.508,1.295401 -0.508001,0.4064 -1.346201,0.4064 -0.296333,0 -0.6604,-0.05927 -0.3556,-0.05927 -0.5842,-0.194733 -0.127,-0.06773 -0.177801,-0.160867 -0.0508,-0.09313 -0.0508,-0.194733 0,-0.1524 0.09313,-0.270934 0.09313,-0.118533 0.3048,-0.118533 0.127,0 0.245533,0.03387 0.127,0.04233 0.254,0.0762 0.127001,0.03387 0.279401,0.0508 0.160866,0.0254 0.296333,0.0254 0.397934,0 0.635,-0.169334 0.237067,-0.169333 0.237067,-0.5842 V 11.20034 q -0.160867,0.05927 -0.372533,0.118533 -0.211667,0.05927 -0.482601,0.05927 -0.440266,0 -0.778933,-0.1524 -0.338667,-0.160867 -0.567267,-0.440267 -0.220134,-0.2794 -0.338667,-0.668867 -0.118533,-0.3979336 -0.118533,-0.8720671 0,-0.4402669 0.09313,-0.8382004 0.1016,-0.3979335 0.296334,-0.6942669 0.2032,-0.2963335 0.499533,-0.4656669 0.296333,-0.1778 0.6858,-0.1778 0.313267,0 0.626534,0.1439333 0.321733,0.1354668 0.601133,0.4064002 z M 40.275891,10.404473 V 8.2454718 q -0.211667,-0.1862667 -0.440267,-0.2709334 -0.2286,-0.093133 -0.4064,-0.093133 -0.414867,0 -0.626534,0.3640668 -0.2032,0.3556001 -0.2032,1.0075337 0,0.694267 0.254001,1.0075335 0.254,0.313267 0.745066,0.313267 0.211667,0 0.364067,-0.0508 0.1524,-0.0508 0.313267,-0.118533 z"
       style="fill:#7de8b2"
       id="path17422" />
    <path
       d="m 43.29848,9.5154723 q 0,0.4402668 0.211667,0.7620007 0.220133,0.313266 0.770467,0.313266 0.1524,0 0.296333,-0.0254 0.143934,-0.0254 0.279401,-0.05927 0.135466,-0.0254 0.262466,-0.06773 0.127,-0.04233 0.245534,-0.04233 0.2032,0 0.296333,0.118533 0.09313,0.110067 0.09313,0.245534 0,0.135467 -0.08467,0.2286 -0.08467,0.09313 -0.2032,0.1524 -0.2286,0.127 -0.5842,0.1778 -0.347134,0.05927 -0.609601,0.05927 -0.499533,0 -0.872067,-0.1524 -0.372533,-0.160867 -0.618067,-0.448734 -0.237066,-0.287867 -0.3556,-0.6858 -0.118533,-0.3979336 -0.118533,-0.8805338 0,-0.9821337 0.465667,-1.5578673 0.474133,-0.5842002 1.3716,-0.5842002 0.4572,0 0.778934,0.1524 0.3302,0.1439334 0.5334,0.3979335 0.211667,0.2540001 0.3048,0.6096003 0.09313,0.3471334 0.09313,0.7620003 0,0.3386668 -0.110067,0.4318001 -0.110067,0.093133 -0.270934,0.093133 z m 0,-0.6434669 h 1.651001 Q 44.941014,8.4402052 44.763214,8.1608051 44.593881,7.881405 44.145147,7.881405 q -0.389467,0 -0.601133,0.2709334 -0.211667,0.2624668 -0.245534,0.719667 z"
       style="fill:#7de8b2"
       id="path17424" />
    <path
       d="m 46.541206,10.878606 q 0,-0.169333 0.118534,-0.2794 0.118533,-0.118533 0.287867,-0.118533 H 47.54874 V 7.9745384 h -0.5842 q -0.169333,0 -0.287867,-0.1185334 -0.118533,-0.1185334 -0.118533,-0.2878668 0,-0.1693334 0.118533,-0.2878668 0.118534,-0.127 0.287867,-0.127 h 0.9652 q 0.118534,0 0.2032,0.0762 0.08467,0.0762 0.118534,0.1862667 l 0.0508,0.2201334 q 0.338667,-0.2370667 0.753533,-0.3979334 0.423334,-0.1693334 0.829734,-0.1693334 0.211667,0 0.347134,0.1100667 0.143933,0.1016 0.1524,0.2794001 l 0.08467,0.9567337 q 0.01693,0.2032001 -0.110066,0.3302001 -0.127,0.1270001 -0.296334,0.1270001 -0.186267,0 -0.296333,-0.1016001 -0.1016,-0.1100667 -0.127,-0.2624667 l -0.08467,-0.5588003 q -0.245533,0.0254 -0.541867,0.1693334 -0.296333,0.1354668 -0.4826,0.2624668 v 2.0997345 h 0.745067 q 0.169333,0 0.287867,0.118533 0.118533,0.118533 0.118533,0.287867 0,0.169333 -0.118533,0.287867 -0.118534,0.118533 -0.287867,0.118533 h -2.328334 q -0.169334,0 -0.287867,-0.118533 -0.118534,-0.127 -0.118534,-0.296334 z"
       style="fill:#7de8b2"
       id="path17426" />
    <path
       d="m 54.642207,8.4317385 h 1.253067 q 0.160867,0 0.2794,0.1270001 0.127,0.1185334 0.127,0.2794001 0,0.1693334 -0.127,0.2878668 -0.118533,0.1185334 -0.2794,0.1185334 h -1.253067 v 1.2784671 q 0,0.160867 -0.127,0.287867 -0.118533,0.118533 -0.2794,0.118533 -0.160867,0 -0.287867,-0.118533 -0.118533,-0.127 -0.118533,-0.287867 V 9.2445389 h -1.244601 q -0.169333,0 -0.287867,-0.1185334 -0.118533,-0.1185334 -0.118533,-0.2878668 0,-0.1608667 0.118533,-0.2794001 0.118534,-0.1270001 0.287867,-0.1270001 h 1.244601 V 7.161738 q 0,-0.1608667 0.118533,-0.2794001 0.127,-0.127 0.287867,-0.127 0.160867,0 0.2794,0.127 0.127,0.1185334 0.127,0.2794001 z"
       style="letter-spacing:0px;fill:#8aa2c4"
       id="path17428" />
    <path
       d="m 22.047201,15.867143 h -0.474134 q -0.169333,0 -0.287866,-0.118534 -0.118534,-0.118533 -0.118534,-0.287866 0,-0.169334 0.118534,-0.287867 0.118533,-0.127 0.287866,-0.127 h 0.474134 v -0.863601 q 0,-0.211666 0.143933,-0.347133 0.143934,-0.143933 0.347134,-0.143933 0.211666,0 0.347133,0.143933 0.143934,0.135467 0.143934,0.347133 v 0.863601 h 0.948267 q 0.169333,0 0.287866,0.127 0.118534,0.118533 0.118534,0.287867 0,0.169333 -0.118534,0.287866 -0.118533,0.118534 -0.287866,0.118534 h -0.948267 v 1.947334 q 0,0.321733 0.127,0.474133 0.135466,0.1524 0.364066,0.1524 0.2032,0 0.304801,-0.0762 0.1016,-0.0762 0.245533,-0.0762 0.1524,0 0.262467,0.1016 0.118533,0.09313 0.118533,0.279401 0,0.110066 -0.05927,0.211666 -0.0508,0.09313 -0.169333,0.169334 -0.2032,0.135466 -0.448733,0.1778 -0.245534,0.04233 -0.397934,0.04233 -0.338667,0 -0.592667,-0.118533 -0.245533,-0.127 -0.414867,-0.3302 -0.160866,-0.2032 -0.245533,-0.465667 -0.0762,-0.262467 -0.0762,-0.550334 z"
       style="font-family:'Clone Rounded PE';-inkscape-font-specification:'Clone Rounded PE Semi-Bold';text-align:start;text-anchor:start;fill:#985cd6"
       id="path17430" />
    <path
       d="m 24.968193,18.771211 q 0,-0.169334 0.118534,-0.279401 0.118533,-0.118533 0.287866,-0.118533 h 0.601134 v -2.506134 h -0.5842 q -0.169334,0 -0.287867,-0.118534 -0.118534,-0.118533 -0.118534,-0.287866 0,-0.169334 0.118534,-0.287867 0.118533,-0.127 0.287867,-0.127 h 0.9652 q 0.118533,0 0.2032,0.0762 0.08467,0.0762 0.118533,0.186267 l 0.0508,0.220133 q 0.338666,-0.237067 0.753533,-0.397934 0.423334,-0.169333 0.829734,-0.169333 0.211667,0 0.347133,0.110067 0.143934,0.1016 0.1524,0.2794 l 0.08467,0.956734 q 0.01693,0.2032 -0.110067,0.3302 -0.127,0.127 -0.296333,0.127 -0.186267,0 -0.296334,-0.1016 -0.1016,-0.110067 -0.127,-0.262467 l -0.08467,-0.5588 q -0.245534,0.0254 -0.541867,0.169333 -0.296334,0.135467 -0.4826,0.262467 v 2.099734 h 0.745067 q 0.169333,0 0.287866,0.118533 0.118534,0.118534 0.118534,0.287867 0,0.169334 -0.118534,0.287867 -0.118533,0.118533 -0.287866,0.118533 h -2.328335 q -0.169333,0 -0.287866,-0.118533 -0.118534,-0.127 -0.118534,-0.296333 z"
       style="font-family:'Clone Rounded PE';-inkscape-font-specification:'Clone Rounded PE Semi-Bold';text-align:start;text-anchor:start;fill:#985cd6"
       id="path17432" />
    <path
       d="m 29.387789,18.779677 q 0,-0.169333 0.118533,-0.287867 0.118534,-0.118533 0.287867,-0.118533 h 0.635 v -2.506134 h -0.618067 q -0.169333,0 -0.287866,-0.118534 -0.118534,-0.118533 -0.118534,-0.287866 0,-0.169334 0.118534,-0.287867 0.118533,-0.127 0.287866,-0.127 h 1.193801 q 0.169333,0 0.287867,0.127 0.118533,0.118533 0.118533,0.287867 v 2.912534 h 0.643467 q 0.160867,0 0.2794,0.118533 0.118533,0.118534 0.118533,0.287867 0,0.169334 -0.118533,0.287867 -0.118533,0.118533 -0.2794,0.118533 h -2.260601 q -0.169333,0 -0.287867,-0.118533 -0.118533,-0.118533 -0.118533,-0.287867 z m 1.337734,-4.343401 q -0.245534,0 -0.423334,-0.169334 -0.1778,-0.1778 -0.1778,-0.4318 0,-0.245533 0.1778,-0.414867 0.1778,-0.1778 0.423334,-0.1778 0.245533,0 0.423333,0.1778 0.1778,0.169334 0.1778,0.414867 0,0.254 -0.1778,0.4318 -0.1778,0.169334 -0.423333,0.169334 z"
       style="font-family:'Clone Rounded PE';-inkscape-font-specification:'Clone Rounded PE Semi-Bold';text-align:start;text-anchor:start;fill:#985cd6"
       id="path17434" />
    <path
       d="m 35.720837,15.511543 0.0508,-0.2032 q 0.03387,-0.135467 0.143933,-0.220134 0.118533,-0.08467 0.2794,-0.08467 0.237067,0 0.347133,0.143934 0.110067,0.135467 0.110067,0.321733 0,0.135467 -0.0508,0.321734 -0.04233,0.1778 -0.04233,0.491067 v 2.946401 q 0,0.897467 -0.508,1.2954 -0.508001,0.4064 -1.346201,0.4064 -0.296333,0 -0.6604,-0.05927 -0.3556,-0.05927 -0.5842,-0.194734 -0.127,-0.06773 -0.1778,-0.160866 -0.0508,-0.09313 -0.0508,-0.194734 0,-0.1524 0.09313,-0.270933 0.09313,-0.118534 0.3048,-0.118534 0.127,0 0.245533,0.03387 0.127,0.04233 0.254001,0.0762 0.127,0.03387 0.2794,0.0508 0.160866,0.0254 0.296333,0.0254 0.397934,0 0.635,-0.169333 0.237067,-0.169334 0.237067,-0.584201 v -0.270933 q -0.160867,0.05927 -0.372533,0.118533 -0.211667,0.05927 -0.482601,0.05927 -0.440266,0 -0.778933,-0.1524 -0.338667,-0.160867 -0.567267,-0.440267 -0.220134,-0.2794 -0.338667,-0.668867 -0.118533,-0.397933 -0.118533,-0.872067 0,-0.440267 0.09313,-0.8382 0.1016,-0.397934 0.296334,-0.694267 0.2032,-0.296333 0.499533,-0.465667 0.296334,-0.1778 0.6858,-0.1778 0.313267,0 0.626534,0.143933 0.321733,0.135467 0.601134,0.406401 z m -0.143934,2.785534 v -2.159001 q -0.211667,-0.186267 -0.440267,-0.270933 -0.2286,-0.09313 -0.4064,-0.09313 -0.414867,0 -0.626533,0.364067 -0.203201,0.3556 -0.203201,1.007534 0,0.694267 0.254001,1.007534 0.254,0.313266 0.745067,0.313266 0.211666,0 0.364066,-0.0508 0.1524,-0.0508 0.313267,-0.118533 z"
       style="font-family:'Clone Rounded PE';-inkscape-font-specification:'Clone Rounded PE Semi-Bold';text-align:start;text-anchor:start;fill:#985cd6"
       id="path17436" />
    <path
       d="m 40.419824,15.511543 0.0508,-0.2032 q 0.03387,-0.135467 0.143934,-0.220134 0.118533,-0.08467 0.2794,-0.08467 0.237067,0 0.347133,0.143934 0.110067,0.135467 0.110067,0.321733 0,0.135467 -0.0508,0.321734 -0.04233,0.1778 -0.04233,0.491067 v 2.946401 q 0,0.897467 -0.508,1.2954 -0.508001,0.4064 -1.346201,0.4064 -0.296333,0 -0.6604,-0.05927 -0.3556,-0.05927 -0.5842,-0.194734 -0.127,-0.06773 -0.177801,-0.160866 -0.0508,-0.09313 -0.0508,-0.194734 0,-0.1524 0.09313,-0.270933 0.09313,-0.118534 0.3048,-0.118534 0.127,0 0.245533,0.03387 0.127,0.04233 0.254,0.0762 0.127001,0.03387 0.279401,0.0508 0.160866,0.0254 0.296333,0.0254 0.397934,0 0.635,-0.169333 0.237067,-0.169334 0.237067,-0.584201 v -0.270933 q -0.160867,0.05927 -0.372533,0.118533 -0.211667,0.05927 -0.482601,0.05927 -0.440266,0 -0.778933,-0.1524 -0.338667,-0.160867 -0.567267,-0.440267 -0.220134,-0.2794 -0.338667,-0.668867 -0.118533,-0.397933 -0.118533,-0.872067 0,-0.440267 0.09313,-0.8382 0.1016,-0.397934 0.296334,-0.694267 0.2032,-0.296333 0.499533,-0.465667 0.296333,-0.1778 0.6858,-0.1778 0.313267,0 0.626534,0.143933 0.321733,0.135467 0.601133,0.406401 z m -0.143933,2.785534 v -2.159001 q -0.211667,-0.186267 -0.440267,-0.270933 -0.2286,-0.09313 -0.4064,-0.09313 -0.414867,0 -0.626534,0.364067 -0.2032,0.3556 -0.2032,1.007534 0,0.694267 0.254001,1.007534 0.254,0.313266 0.745066,0.313266 0.211667,0 0.364067,-0.0508 0.1524,-0.0508 0.313267,-0.118533 z"
       style="font-family:'Clone Rounded PE';-inkscape-font-specification:'Clone Rounded PE Semi-Bold';text-align:start;text-anchor:start;fill:#985cd6"
       id="path17438" />
    <path
       d="m 43.29848,17.408077 q 0,0.440267 0.211667,0.762 0.220133,0.313267 0.770467,0.313267 0.1524,0 0.296333,-0.0254 0.143934,-0.0254 0.279401,-0.05927 0.135466,-0.0254 0.262466,-0.06773 0.127,-0.04233 0.245534,-0.04233 0.2032,0 0.296333,0.118534 0.09313,0.110066 0.09313,0.245533 0,0.135467 -0.08467,0.2286 -0.08467,0.09313 -0.2032,0.1524 -0.2286,0.127 -0.5842,0.1778 -0.347134,0.05927 -0.609601,0.05927 -0.499533,0 -0.872067,-0.1524 -0.372533,-0.160867 -0.618067,-0.448733 -0.237066,-0.287867 -0.3556,-0.685801 -0.118533,-0.397933 -0.118533,-0.880533 0,-0.982134 0.465667,-1.557868 0.474133,-0.5842 1.3716,-0.5842 0.4572,0 0.778934,0.1524 0.3302,0.143934 0.5334,0.397934 0.211667,0.254 0.3048,0.6096 0.09313,0.347133 0.09313,0.762 0,0.338667 -0.110067,0.4318 -0.110067,0.09313 -0.270934,0.09313 z m 0,-0.643467 h 1.651001 q -0.0085,-0.4318 -0.186267,-0.711201 -0.169333,-0.2794 -0.618067,-0.2794 -0.389467,0 -0.601133,0.270934 -0.211667,0.262467 -0.245534,0.719667 z"
       style="font-family:'Clone Rounded PE';-inkscape-font-specification:'Clone Rounded PE Semi-Bold';text-align:start;text-anchor:start;fill:#985cd6"
       id="path17440" />
    <path
       d="m 46.541206,18.771211 q 0,-0.169334 0.118534,-0.279401 0.118533,-0.118533 0.287867,-0.118533 h 0.601133 v -2.506134 h -0.5842 q -0.169333,0 -0.287867,-0.118534 -0.118533,-0.118533 -0.118533,-0.287866 0,-0.169334 0.118533,-0.287867 0.118534,-0.127 0.287867,-0.127 h 0.9652 q 0.118534,0 0.2032,0.0762 0.08467,0.0762 0.118534,0.186267 l 0.0508,0.220133 q 0.338667,-0.237067 0.753533,-0.397934 0.423334,-0.169333 0.829734,-0.169333 0.211667,0 0.347134,0.110067 0.143933,0.1016 0.1524,0.2794 l 0.08467,0.956734 q 0.01693,0.2032 -0.110066,0.3302 -0.127,0.127 -0.296334,0.127 -0.186267,0 -0.296333,-0.1016 -0.1016,-0.110067 -0.127,-0.262467 l -0.08467,-0.5588 q -0.245533,0.0254 -0.541867,0.169333 -0.296333,0.135467 -0.4826,0.262467 v 2.099734 h 0.745067 q 0.169333,0 0.287867,0.118533 0.118533,0.118534 0.118533,0.287867 0,0.169334 -0.118533,0.287867 -0.118534,0.118533 -0.287867,0.118533 h -2.328334 q -0.169334,0 -0.287867,-0.118533 -0.118534,-0.127 -0.118534,-0.296333 z"
       style="font-family:'Clone Rounded PE';-inkscape-font-specification:'Clone Rounded PE Semi-Bold';text-align:start;text-anchor:start;fill:#985cd6"
       id="path17442" />
    <path
       d="m 53.720937,15.147476 v -1.625601 q 0,-0.211667 0.135466,-0.347133 0.143934,-0.143934 0.3556,-0.143934 0.211667,0 0.347134,0.143934 0.143933,0.135466 0.143933,0.347133 v 4.436535 q 0,0.313267 0.0508,0.499534 0.0508,0.1778 0.0508,0.313267 0,0.186266 -0.110066,0.3302 -0.110067,0.135466 -0.3302,0.135466 -0.194734,0 -0.304801,-0.08467 -0.1016,-0.09313 -0.143933,-0.2286 l -0.0508,-0.194734 q -0.287867,0.2794 -0.601134,0.414867 -0.3048,0.127 -0.5842,0.127 -0.338667,0 -0.635,-0.127 -0.296334,-0.135467 -0.516467,-0.397933 -0.211667,-0.270934 -0.338667,-0.677334 -0.127,-0.4064 -0.127,-0.948267 0,-0.956734 0.474134,-1.557867 0.474133,-0.601134 1.430867,-0.601134 0.211667,0 0.4064,0.06773 0.194734,0.05927 0.347134,0.118534 z m 0,2.946401 v -2.150534 q -0.143934,-0.0762 -0.347134,-0.118534 -0.2032,-0.0508 -0.389467,-0.0508 -0.508,0 -0.719667,0.372534 -0.211666,0.364067 -0.211666,0.973667 0,0.618067 0.2032,0.982134 0.2032,0.364066 0.626533,0.364066 0.169334,0 0.397934,-0.08467 0.2286,-0.09313 0.440267,-0.287867 z"
       style="font-family:'Clone Rounded PE';-inkscape-font-specification:'Clone Rounded PE Semi-Bold';text-align:start;text-anchor:start;fill:#985cd6"
       id="path17444" />
  </g>
</svg>
